<svg width="102" height="28" viewBox="0 0 102 28" fill="none" xmlns="http://www.w3.org/2000/svg">
<path d="M15.705 23.2275C18.6082 23.2275 21.2003 22.2944 23.3776 20.3589C23.8961 19.9096 24.1725 19.9096 24.5873 20.428C25.1403 21.0502 25.7278 21.6377 26.3153 22.1907C26.6955 22.5363 26.6264 22.7091 26.2808 23.0201C23.9306 25.1629 21.1657 26.4763 18.0206 26.9947C10.59 28.2043 3.40125 23.5731 1.05109 17.0411C-1.09171 11.062 0.0833726 5.70497 4.19616 0.935521C4.54177 0.555347 4.71458 0.555347 5.06019 0.935521C5.64773 1.59218 6.30439 2.21429 6.96106 2.83639C7.27211 3.14744 7.30667 3.28568 6.99562 3.66586C3.95423 7.1911 3.19388 11.2002 4.68002 15.5895C6.20071 20.117 10.7282 23.2275 15.705 23.2275ZM61.1531 12.1334C60.531 14.0688 59.9088 15.9351 59.3213 17.8014C59.1139 18.4235 58.872 19.0456 58.7338 19.6677C58.5955 20.2552 58.319 20.3935 57.7315 20.3589C57.144 20.3244 56.5564 20.3589 55.9689 20.3589C54.8284 20.3589 54.8283 20.3589 54.4482 19.3221C53.1003 15.624 51.7524 11.9606 50.3699 8.2625C50.1626 7.70952 50.2663 7.57128 50.8192 7.60584C51.5796 7.6404 52.3399 7.6404 53.0657 7.57128C53.6187 7.53672 53.8952 7.70952 54.0334 8.2625C54.7592 10.7509 55.5887 13.2393 56.349 15.7277C56.4182 15.9697 56.5219 16.2461 56.6601 16.6954C56.9711 15.624 57.2476 14.7254 57.5241 13.8269C58.1117 11.926 58.6992 9.99056 59.2522 8.08969C59.3559 7.70952 59.5287 7.53672 59.9434 7.57128C60.7729 7.60584 61.6369 7.60584 62.5009 7.57128C62.9157 7.57128 63.0885 7.70952 63.1922 8.08969L65.4732 15.5549C65.5769 15.8314 65.5769 16.177 65.8879 16.4535C66.2336 15.313 66.5792 14.2416 66.9248 13.1356C67.4432 11.4767 67.9616 9.81775 68.4455 8.15882C68.5837 7.67496 68.7911 7.53672 69.2749 7.57128C70.0698 7.60584 70.8648 7.60584 71.6597 7.57128C72.0398 7.57128 72.2126 7.60584 72.0398 8.08969C70.5883 11.9951 69.1713 15.9005 67.7542 19.806C67.5814 20.2552 67.3741 20.3935 66.9593 20.3589C66.1644 20.3244 65.3695 20.3244 64.5746 20.3589C64.0908 20.3935 63.8834 20.2552 63.7451 19.7714C62.9848 17.3521 62.1899 14.9674 61.395 12.5481C61.395 12.4098 61.395 12.2716 61.1531 12.1334ZM33.9879 11.9606C35.4741 10.6472 36.9256 9.3339 38.3772 7.98601C38.6537 7.74408 38.8956 7.57128 39.3104 7.60584C40.4509 7.6404 41.5914 7.60584 42.9047 7.60584C42.0753 8.50443 41.3149 9.26477 40.5891 10.0597C39.967 10.7163 39.3795 11.373 38.7228 11.9951C38.3426 12.3407 38.3081 12.5827 38.5846 13.0665C40.0016 15.2784 41.384 17.5249 42.7665 19.7714C42.8702 19.9096 42.9393 20.0824 43.1121 20.3589H39.0339C38.7228 20.3589 38.6537 20.0479 38.5155 19.8405C37.7205 18.4926 36.8911 17.1447 36.1307 15.7623C35.8197 15.2439 35.6814 15.313 35.2321 15.6586C34.1953 16.4881 34.0571 17.5595 34.0916 18.8037C34.1607 20.3935 34.0916 20.3935 32.5364 20.3935C32.0525 20.3935 31.5341 20.3589 31.0502 20.3935C30.5318 20.4281 30.4281 20.2207 30.4281 19.7368V3.42393C30.4281 2.90551 30.5664 2.69814 31.0848 2.7327C31.8451 2.76727 32.64 2.76727 33.4004 2.7327C33.9534 2.69814 34.0916 2.90551 34.0571 3.42393C34.0225 6.15426 34.0571 8.8846 34.0571 11.6149C34.1262 11.7877 34.0571 12.0297 33.9879 11.9606ZM95.4378 16.3153C96.0253 14.6563 96.5092 13.2048 97.0276 11.7532C97.4423 10.5435 97.8571 9.29934 98.2718 8.08969C98.3755 7.70952 98.5829 7.57128 98.963 7.60584C99.8271 7.6404 100.691 7.6404 101.59 7.60584C102.004 7.60584 102.074 7.74408 101.935 8.08969C100.069 12.7555 98.2372 17.3867 96.3709 22.0524C95.023 25.4394 91.3941 25.7505 89.0785 24.4026C88.5601 24.0915 88.2836 23.8496 88.7329 23.2275C89.1131 22.7437 89.3896 22.1907 89.6661 21.6377C89.8389 21.3266 89.9425 21.3266 90.2536 21.4994C91.6706 22.3289 92.6729 21.9833 93.3987 20.5317C93.6406 20.0479 93.4678 19.7023 93.295 19.3221C91.7052 15.5895 90.1499 11.8914 88.5601 8.15882C88.3182 7.60584 88.4564 7.53672 88.9748 7.57128C89.8043 7.60584 90.6338 7.60584 91.4287 7.57128C91.9125 7.53672 92.1199 7.70952 92.2927 8.15882C93.1913 10.6127 94.159 13.0665 95.0922 15.5549C95.1958 15.7623 95.265 15.9351 95.4378 16.3153Z" fill="#F4F5F7"/>
<path d="M81.5097 15.4858C81.5097 14.0688 81.4751 12.6518 81.5097 11.2348C81.5097 10.7855 81.3714 10.5781 80.9221 10.6473C80.7493 10.6818 80.5765 10.6473 80.4383 10.6473C79.989 10.6818 79.7471 10.5436 79.8162 10.0597C79.8508 9.88692 79.8162 9.71411 79.8162 9.57587C79.8162 8.26254 79.8162 8.22798 81.095 8.12429C81.5443 8.08973 81.4751 7.81324 81.4751 7.53675C81.4751 6.49992 81.5443 5.49764 82.0972 4.59905C83.2723 2.7673 85.0349 2.42169 87.0049 2.55994C87.7307 2.62906 88.4219 2.83643 89.0786 3.14748C89.3897 3.28572 89.5279 3.42397 89.3205 3.76958C88.9749 4.35712 88.6984 4.97922 88.3874 5.60133C88.2491 5.91238 88.0763 5.94694 87.7998 5.77413C87.4197 5.56676 87.0049 5.46308 86.5902 5.46308C85.4497 5.46308 84.5856 6.88009 85.1041 7.88237C85.2077 8.08973 85.4151 8.05517 85.5879 8.05517C86.21 8.05517 86.8667 8.08973 87.4888 8.05517C87.9381 8.02061 88.1455 8.15886 88.1109 8.64271C88.0763 9.12657 88.0763 9.64499 88.1109 10.1288C88.1455 10.509 87.9726 10.6127 87.627 10.6127C87.0395 10.5781 86.452 10.6473 85.8644 10.6127C85.2769 10.5781 85.0695 10.7164 85.0695 11.3731C85.1041 14.1034 85.0695 16.8337 85.1041 19.5641C85.1041 20.117 85.0004 20.359 84.3783 20.3244C83.5834 20.2553 82.7885 20.2898 81.9936 20.3244C81.5443 20.359 81.4406 20.1862 81.4406 19.7714C81.5443 18.3544 81.5097 16.9374 81.5097 15.4858ZM48.5728 13.9651C48.5728 15.8314 48.5383 17.7323 48.6074 19.5986C48.6074 20.2553 48.4 20.3935 47.8125 20.359C47.0522 20.2898 46.2572 20.3244 45.4969 20.359C45.1167 20.359 44.9439 20.2553 44.9439 19.8405V8.05517C44.9439 7.675 45.1167 7.57132 45.4623 7.57132C46.3264 7.57132 47.1904 7.60588 48.089 7.57132C48.5383 7.53675 48.6074 7.74412 48.6074 8.15886C48.5383 10.0943 48.5728 12.0297 48.5728 13.9651ZM77.466 14.0688C77.466 15.9351 77.4315 17.7669 77.466 19.6332C77.466 20.2207 77.2932 20.3935 76.7057 20.359C75.9453 20.3244 75.185 20.3244 74.4592 20.359C73.9408 20.3935 73.768 20.2207 73.8025 19.7023C73.8371 16.4535 73.8025 13.1702 73.8025 9.92148C73.8025 9.33394 73.8371 8.7464 73.8025 8.15886C73.768 7.70956 73.9408 7.60588 74.3555 7.60588C75.1504 7.64044 75.9453 7.64044 76.7402 7.60588C77.2932 7.57132 77.466 7.74412 77.466 8.2971C77.4315 10.2325 77.466 12.1334 77.466 14.0688ZM48.7111 3.94239C48.7111 5.15203 47.8816 5.94694 46.7411 5.94694C45.6006 5.94694 44.7711 5.04835 44.8057 3.90783C44.8402 2.73274 45.7043 1.86871 46.8102 1.86871C47.9162 1.90327 48.7111 2.80187 48.7111 3.94239ZM77.5697 3.94239C77.5697 5.11747 76.7402 5.9815 75.5997 5.94694C74.4246 5.94694 73.6643 5.11747 73.6643 3.90783C73.6643 2.73274 74.4938 1.86871 75.6343 1.86871C76.7748 1.90327 77.5697 2.76731 77.5697 3.94239ZM10.7629 9.92148C9.72604 9.78323 8.82744 9.40306 8.13622 8.57359C7.89429 8.26254 7.68692 7.91693 7.89429 7.53675C8.10166 7.12202 8.55095 7.08746 8.93113 7.15658C9.9334 7.29483 10.7629 7.70956 11.4195 8.46991C11.696 8.78096 11.938 9.12657 11.7306 9.5413C11.5578 9.92148 11.143 9.92148 10.7629 9.92148ZM20.0944 18.4235C20.0598 18.8037 20.0598 19.1493 19.7142 19.3221C19.4032 19.4949 19.0576 19.3913 18.7811 19.1839C17.8134 18.4235 17.2949 17.4558 17.2949 16.2116C17.2949 15.4167 17.917 15.1402 18.5737 15.6241C19.5414 16.3153 19.9907 17.283 20.0944 18.4235ZM12.7674 15.2093C12.7674 16.2462 11.0739 17.9051 10.0371 17.9051C9.48411 17.9051 9.27674 17.5941 9.3113 17.0757C9.38042 16.0734 10.8666 14.5527 11.8688 14.4144C12.4218 14.3799 12.7674 14.6909 12.7674 15.2093ZM13.5278 18.4235C13.5278 17.7323 13.7351 17.0756 14.1153 16.4881C14.3227 16.1425 14.5992 15.866 15.0139 15.9006C15.4632 15.9351 15.6014 16.3153 15.7051 16.6955C15.9816 17.7323 15.8088 18.7 15.2904 19.5986C15.1176 19.9097 14.8411 20.2553 14.4264 20.1862C13.9771 20.117 13.8043 19.7369 13.7006 19.3221C13.5623 19.0456 13.5623 18.7346 13.5278 18.4235ZM9.69147 11.4422C10.6592 11.4422 11.2813 11.7532 11.3159 12.2371C11.385 12.6864 10.832 13.2048 9.96796 13.4813C9.17306 13.7232 8.41271 13.8269 7.6178 13.5158C6.89202 13.2048 6.78833 12.5827 7.44499 12.1334C8.10166 11.615 8.862 11.4076 9.69147 11.4422Z" fill="#F4F5F7"/>
</svg>
